<?xml version="1.0" encoding="UTF-8"?>
<!-- Generator: visioncortex VTracer 0.6.4 -->
<svg version="1.1" xmlns="http://www.w3.org/2000/svg" width="752" height="750">
<path d="M0 0 C1.82 -0 3.63 -0 5.45 -0.01 C10.41 -0.01 15.37 -0.01 20.34 -0.01 C25.7 -0.01 31.06 -0.02 36.43 -0.02 C46.92 -0.03 57.42 -0.03 67.92 -0.03 C76.45 -0.03 84.99 -0.04 93.53 -0.04 C117.76 -0.05 141.99 -0.05 166.22 -0.05 C167.53 -0.05 168.83 -0.05 170.18 -0.05 C172.13 -0.05 172.13 -0.05 174.13 -0.05 C195.3 -0.05 216.47 -0.06 237.64 -0.07 C259.4 -0.09 281.16 -0.1 302.92 -0.1 C315.13 -0.09 327.33 -0.1 339.54 -0.11 C349.93 -0.12 360.33 -0.12 370.72 -0.11 C376.02 -0.11 381.31 -0.11 386.61 -0.12 C391.47 -0.13 396.33 -0.12 401.19 -0.12 C402.94 -0.11 404.69 -0.12 406.43 -0.12 C447.31 -0.24 484.79 10.32 514.82 39.13 C515.7 39.95 516.59 40.77 517.49 41.61 C533.47 56.89 544.71 76 551.82 96.88 C552.09 97.66 552.36 98.44 552.63 99.24 C557.28 113.89 558.26 128.43 558.2 143.68 C558.21 145.6 558.21 147.51 558.22 149.43 C558.23 154.65 558.22 159.87 558.21 165.09 C558.21 170.73 558.22 176.38 558.23 182.03 C558.24 193.07 558.24 204.11 558.23 215.16 C558.22 224.14 558.22 233.12 558.22 242.1 C558.22 243.38 558.22 244.66 558.23 245.98 C558.23 248.58 558.23 251.18 558.23 253.78 C558.24 277.46 558.23 301.13 558.21 324.81 C558.2 346.38 558.2 367.96 558.21 389.54 C558.23 413.83 558.24 438.11 558.23 462.39 C558.23 464.99 558.22 467.58 558.22 470.17 C558.22 472.08 558.22 472.08 558.22 474.03 C558.22 483 558.22 491.96 558.23 500.93 C558.24 511.86 558.24 522.79 558.22 533.72 C558.21 539.29 558.21 544.86 558.22 550.43 C558.23 555.54 558.22 560.65 558.21 565.76 C558.21 567.6 558.21 569.44 558.21 571.28 C558.34 604.45 547.77 636.87 525.82 662.13 C525.14 662.94 524.45 663.75 523.74 664.58 C500.29 691.49 467.45 708.6 431.82 712.13 C429.11 712.22 426.43 712.27 423.72 712.27 C422.94 712.27 422.16 712.27 421.36 712.27 C418.76 712.28 416.16 712.28 413.56 712.27 C411.67 712.28 409.78 712.28 407.89 712.28 C402.71 712.29 397.53 712.29 392.35 712.29 C386.76 712.3 381.17 712.3 375.58 712.31 C363.36 712.32 351.14 712.33 338.92 712.33 C331.28 712.34 323.65 712.34 316.01 712.35 C294.86 712.36 273.71 712.37 252.56 712.37 C251.19 712.37 249.83 712.37 248.46 712.37 C247.09 712.37 245.72 712.37 244.35 712.37 C241.6 712.37 238.85 712.37 236.1 712.37 C235.42 712.37 234.74 712.37 234.04 712.37 C211.95 712.38 189.87 712.39 167.79 712.42 C144.42 712.44 121.05 712.46 97.68 712.46 C84.95 712.46 72.22 712.46 59.49 712.48 C48.64 712.5 37.8 712.5 26.96 712.49 C21.43 712.49 15.9 712.49 10.38 712.5 C5.3 712.52 0.23 712.52 -4.84 712.5 C-6.66 712.5 -8.48 712.51 -10.31 712.51 C-45.06 712.67 -77.7 702.09 -104.18 679.13 C-105.01 678.43 -105.84 677.72 -106.69 676.99 C-133.24 653.77 -148.81 621.92 -153.18 587.13 C-153.27 584.45 -153.32 581.8 -153.31 579.12 C-153.31 578.34 -153.31 577.56 -153.32 576.76 C-153.32 574.14 -153.32 571.53 -153.32 568.91 C-153.32 567.02 -153.32 565.12 -153.33 563.23 C-153.34 558.02 -153.34 552.82 -153.34 547.61 C-153.34 542 -153.35 536.38 -153.35 530.77 C-153.37 518.49 -153.37 506.21 -153.38 493.93 C-153.38 486.26 -153.38 478.59 -153.39 470.91 C-153.4 449.67 -153.41 428.42 -153.42 407.17 C-153.42 405.8 -153.42 404.42 -153.42 403.05 C-153.42 401.67 -153.42 400.3 -153.42 398.92 C-153.42 396.16 -153.42 393.4 -153.42 390.63 C-153.42 389.95 -153.42 389.26 -153.42 388.56 C-153.42 366.37 -153.44 344.19 -153.46 322 C-153.49 298.52 -153.5 275.04 -153.5 251.57 C-153.5 238.78 -153.51 225.99 -153.53 213.2 C-153.54 202.3 -153.55 191.41 -153.54 180.52 C-153.53 174.96 -153.53 169.41 -153.55 163.86 C-153.56 158.76 -153.56 153.67 -153.55 148.57 C-153.55 146.74 -153.55 144.91 -153.56 143.07 C-153.73 103.93 -139.38 68.4 -111.93 40.45 C-81.09 9.99 -42.19 -0.04 0 0 Z " fill="#FEE60B" transform="translate(173.17752075195313,17.866287231445313)"/>
<path d="M0 0 C10.63 10.56 13.03 26.93 16 41 C16.25 42.19 16.25 42.19 16.51 43.4 C21.67 68.31 21.67 68.31 15.62 78.84 C10.82 85.24 4.63 88.22 -3.14 89.53 C-7.34 90.04 -11.43 90.17 -15.65 90.21 C-17.33 90.24 -19.02 90.27 -20.7 90.3 C-23.3 90.34 -25.91 90.37 -28.51 90.4 C-55.53 90.7 -79.4 96.23 -99 116 C-115.38 133.27 -121.26 156.39 -126 179 C-126.16 179.75 -126.31 180.49 -126.48 181.26 C-128 188.53 -129.36 195.82 -130.53 203.16 C-131 206 -131.56 208.81 -132.12 211.62 C-133.09 216.79 -133.2 221.76 -133 227 C-130.29 228.35 -128.18 228.12 -125.15 228.11 C-123.31 228.11 -123.31 228.11 -121.42 228.11 C-120.44 228.11 -120.44 228.11 -119.43 228.11 C-115.92 228.1 -112.42 228.13 -108.92 228.15 C-104.47 228.17 -100.01 228.19 -95.56 228.18 C-91.96 228.16 -88.36 228.18 -84.76 228.22 C-83.39 228.23 -82.03 228.22 -80.66 228.21 C-71.71 228.13 -64.98 229.05 -58 235 C-49.25 245.81 -52.25 264.65 -53.19 277.55 C-54.88 292.4 -62.28 311.22 -73.44 321.44 C-80.12 326.65 -86.66 329.11 -95.1 329.14 C-96.33 329.15 -97.56 329.16 -98.83 329.16 C-99.48 329.16 -100.14 329.17 -100.81 329.17 C-102.87 329.18 -104.92 329.19 -106.98 329.21 C-112.82 329.26 -118.66 329.31 -124.5 329.33 C-128.08 329.34 -131.66 329.37 -135.24 329.41 C-136.6 329.42 -137.96 329.42 -139.32 329.42 C-141.23 329.42 -143.13 329.44 -145.03 329.47 C-146.11 329.48 -147.2 329.48 -148.31 329.49 C-151.11 329.75 -151.11 329.75 -152.83 331.9 C-154.09 334.17 -154.64 336.01 -155.1 338.56 C-155.26 339.44 -155.42 340.31 -155.58 341.21 C-155.74 342.13 -155.9 343.05 -156.06 344 C-156.32 345.42 -156.32 345.42 -156.58 346.87 C-157.06 349.58 -157.53 352.29 -158 355 C-158.21 356.17 -158.42 357.35 -158.63 358.56 C-159.71 364.85 -160.6 371.16 -161.44 377.48 C-161.85 380.06 -162.33 382.53 -162.92 385.07 C-164.06 390.15 -164.98 395.25 -165.88 400.37 C-166.13 401.81 -166.13 401.81 -166.39 403.29 C-166.93 406.34 -167.46 409.39 -168 412.44 C-168.54 415.48 -169.07 418.53 -169.61 421.58 C-169.94 423.46 -170.27 425.35 -170.6 427.24 C-171.38 431.65 -172.18 436.06 -173.03 440.47 C-173.18 441.27 -173.33 442.07 -173.49 442.89 C-174.56 447.31 -176.27 449.51 -180 452 C-182.41 452.25 -182.41 452.25 -185.32 452.25 C-186.42 452.26 -187.53 452.27 -188.66 452.27 C-189.88 452.27 -191.09 452.26 -192.33 452.26 C-193.61 452.26 -194.88 452.27 -196.2 452.27 C-199.7 452.28 -203.19 452.27 -206.69 452.27 C-210.35 452.26 -214.01 452.27 -217.66 452.27 C-223.8 452.28 -229.94 452.27 -236.09 452.26 C-243.19 452.25 -250.3 452.25 -257.4 452.26 C-263.5 452.27 -269.59 452.27 -275.69 452.27 C-279.33 452.27 -282.98 452.27 -286.62 452.27 C-290.68 452.28 -294.74 452.27 -298.8 452.26 C-300.61 452.26 -300.61 452.26 -302.47 452.27 C-304.12 452.26 -304.12 452.26 -305.81 452.25 C-307.25 452.25 -307.25 452.25 -308.72 452.25 C-311 452 -311 452 -313 450 C-313.74 444.26 -312.77 438.46 -311.68 432.82 C-311.54 432.06 -311.4 431.3 -311.26 430.52 C-310.8 428.06 -310.34 425.59 -309.88 423.12 C-309.23 419.62 -308.58 416.1 -307.94 412.59 C-307.77 411.71 -307.61 410.82 -307.44 409.91 C-305.97 401.89 -304.59 393.85 -303.24 385.81 C-301.23 373.82 -299.09 361.88 -296.56 349.98 C-294.59 341.07 -294.59 341.07 -294 332 C-296.45 329.55 -297.8 329.76 -301.15 329.73 C-301.87 329.74 -302.6 329.74 -303.34 329.74 C-304.11 329.74 -304.88 329.74 -305.67 329.73 C-307.36 329.73 -309.04 329.72 -310.73 329.73 C-313.49 329.73 -316.25 329.72 -319 329.7 C-323.03 329.68 -327.05 329.66 -331.07 329.65 C-370.51 329.5 -409.9 328.59 -449.31 327.06 C-451.57 326.98 -453.84 326.89 -456.1 326.8 C-470.4 326.25 -484.7 325.66 -499 325 C-500.37 324.94 -500.37 324.94 -501.77 324.87 C-506.9 324.64 -512.04 324.39 -517.17 324.12 C-518.69 324.04 -520.22 323.96 -521.74 323.89 C-523.79 323.79 -525.84 323.67 -527.9 323.56 C-529.03 323.5 -530.17 323.44 -531.35 323.38 C-534 323 -534 323 -536 321 C-535.44 316.44 -535.44 316.44 -534 315 C-528.69 314.06 -523.39 313.72 -518.01 313.46 C-517.13 313.41 -516.26 313.37 -515.36 313.32 C-512.47 313.17 -509.58 313.02 -506.7 312.88 C-504.65 312.77 -502.61 312.67 -500.57 312.56 C-495.18 312.28 -489.79 312.01 -484.4 311.73 C-474.86 311.24 -465.31 310.75 -455.76 310.25 C-454.73 310.2 -453.71 310.15 -452.65 310.09 C-434.76 309.17 -416.88 308.14 -399 307 C-398.95 305.56 -398.91 304.13 -398.88 302.69 C-398.85 301.89 -398.83 301.09 -398.8 300.26 C-398.84 297.72 -398.84 297.72 -401 295 C-407.45 292.03 -415 291.96 -421.97 291.23 C-428.37 290.51 -433.97 289.26 -440 287 C-440 285.02 -440 283.04 -440 281 C-432.86 278.98 -425.9 278.37 -418.51 277.88 C-411.75 277.39 -411.75 277.39 -406 274 C-405.43 270.13 -405.66 267.76 -407.25 264.19 C-409.15 261.81 -410.2 261.09 -413 260 C-418.38 259.48 -423.85 259.49 -429.06 261 C-442.48 264.84 -455.93 259.99 -467.82 253.87 C-472.18 251.66 -476.21 250.34 -481.03 249.49 C-483 249 -483 249 -486 247 C-486.38 244.56 -486.38 244.56 -486 242 C-484.34 239.75 -483.34 239.08 -480.59 238.46 C-479.16 238.35 -479.16 238.35 -477.69 238.23 C-476.6 238.14 -475.51 238.05 -474.38 237.95 C-473.19 237.86 -472 237.77 -470.78 237.68 C-469.53 237.58 -468.28 237.48 -467 237.37 C-464.34 237.16 -461.67 236.95 -459.01 236.75 C-455.06 236.45 -451.11 236.13 -447.17 235.81 C-439.12 235.16 -431.06 234.56 -423 234 C-421.74 233.91 -420.49 233.82 -419.19 233.73 C-400.06 232.42 -380.92 231.66 -361.76 231 C-360.56 230.96 -359.36 230.92 -358.12 230.87 C-346.89 230.49 -335.66 230.11 -324.43 229.75 C-318.22 229.55 -312.01 229.34 -305.8 229.12 C-303.45 229.04 -301.1 228.96 -298.76 228.89 C-295.51 228.79 -292.26 228.68 -289.01 228.56 C-288.05 228.54 -287.09 228.51 -286.1 228.48 C-285.22 228.45 -284.34 228.41 -283.43 228.38 C-282.66 228.35 -281.9 228.33 -281.12 228.3 C-278.67 227.95 -277.07 227.34 -275 226 C-271.6 219.13 -270.89 211.77 -269.81 204.25 C-266.15 179.96 -261.54 155.09 -253 132 C-252.71 131.21 -252.42 130.42 -252.13 129.6 C-245.95 112.85 -238.13 96.74 -228 82 C-227.64 81.47 -227.28 80.94 -226.91 80.4 C-213.24 60.44 -196.88 41.94 -177 28 C-176.45 27.6 -175.91 27.21 -175.34 26.8 C-148.23 7.16 -116.76 -2.88 -84.06 -8.25 C-83.07 -8.41 -82.08 -8.58 -81.05 -8.75 C-56.65 -12.53 -20.3 -17.59 0 0 Z " fill="#2A55E4" transform="translate(634,154)"/>
</svg>
